<?xml version="1.0" encoding="UTF-8"?>
<svg version="1.1" xmlns="http://www.w3.org/2000/svg" width="308" height="293">
<path d="M0 0 C101.64 0 203.28 0 308 0 C308 96.69 308 193.38 308 293 C206.36 293 104.72 293 0 293 C0 196.31 0 99.62 0 0 Z " fill="#010000" transform="translate(0,0)"/>
<path d="M0 0 C35.97 0 71.94 0 109 0 C109 64.68 109 129.36 109 196 C30.13 196 -48.74 196 -130 196 C-130 167.29 -130 138.58 -130 109 C-122.74 109 -115.48 109 -108 109 C-108 130.45 -108 151.9 -108 174 C-43.65 174 20.7 174 87 174 C87 123.84 87 73.68 87 22 C58.29 22 29.58 22 0 22 C0 14.74 0 7.48 0 0 Z " fill="#FC6500" transform="translate(168,37)"/>
<path d="M0 0 C7.26 0 14.52 0 22 0 C22 7.26 22 14.52 22 22 C28.93 22 35.86 22 43 22 C42.96041531 15.13387193 42.96041531 15.13387193 42.90991211 8.26782227 C42.90741455 7.41760498 42.90491699 6.5673877 42.90234375 5.69140625 C42.89710693 4.81685791 42.89187012 3.94230957 42.88647461 3.04125977 C43 1 43 1 44 0 C45.63472882 -0.08700342 47.27314055 -0.10701063 48.91015625 -0.09765625 C49.800979 -0.09515869 50.69180176 -0.09266113 51.60961914 -0.09008789 C53.31879517 -0.07643188 53.31879517 -0.07643188 55.0625 -0.0625 C60.4765625 -0.0315625 60.4765625 -0.0315625 66 0 C66 7.26 66 14.52 66 22 C73.26 22 80.52 22 88 22 C88 36.19 88 50.38 88 65 C94.93 65 101.86 65 109 65 C109 79.85 109 94.7 109 110 C101.74 110 94.48 110 87 110 C87 102.41 87 94.82 87 87 C79.74 87 72.48 87 65 87 C65 94.26 65 101.52 65 109 C58.07 109 51.14 109 44 109 C44 101.74 44 94.48 44 87 C36.74 87 29.48 87 22 87 C22 94.26 22 101.52 22 109 C14.74 109 7.48 109 0 109 C0 101.74 0 94.48 0 87 C-6.93 87 -13.86 87 -21 87 C-21 94.26 -21 101.52 -21 109 C-28.26 109 -35.52 109 -43 109 C-43 94.48 -43 79.96 -43 65 C-36.07 65 -29.14 65 -22 65 C-22 50.81 -22 36.62 -22 22 C-14.74 22 -7.48 22 0 22 C0 14.74 0 7.48 0 0 Z " fill="#FB6500" transform="translate(60,15)"/>
<path d="M0 0 C7.26 0 14.52 0 22 0 C22.020625 3.444375 22.04125 6.88875 22.0625 10.4375 C22.071604 11.52474365 22.08070801 12.6119873 22.09008789 13.73217773 C22.09258545 14.58239502 22.09508301 15.4326123 22.09765625 16.30859375 C22.10551147 17.62041626 22.10551147 17.62041626 22.11352539 18.95874023 C22 21 22 21 21 22 C19.43827255 22.08685603 17.87270656 22.10702219 16.30859375 22.09765625 C15.45837646 22.09515869 14.60815918 22.09266113 13.73217773 22.09008789 C12.64493408 22.08098389 11.55769043 22.07187988 10.4375 22.0625 C6.993125 22.041875 3.54875 22.02125 0 22 C0 14.74 0 7.48 0 0 Z " fill="#140700" transform="translate(104,59)"/>
<path d="M0 0 C6.93 0 13.86 0 21 0 C21 6.93 21 13.86 21 21 C14.07 21 7.14 21 0 21 C0 14.07 0 7.14 0 0 Z " fill="#060100" transform="translate(61,59)"/>
</svg>
