<?xml version="1.0" encoding="UTF-8"?>
<svg version="1.1" xmlns="http://www.w3.org/2000/svg" width="1132" height="297">
<path d="M0 0 C373.56 0 747.12 0 1132 0 C1132 98.01 1132 196.02 1132 297 C758.44 297 384.88 297 0 297 C0 198.99 0 100.98 0 0 Z " fill="#010000" transform="translate(0,0)"/>
<path d="M0 0 C35.97 0 71.94 0 109 0 C109 64.68 109 129.36 109 196 C30.13 196 -48.74 196 -130 196 C-130 167.29 -130 138.58 -130 109 C-122.74 109 -115.48 109 -108 109 C-108 130.45 -108 151.9 -108 174 C-43.65 174 20.7 174 87 174 C87 123.84 87 73.68 87 22 C58.29 22 29.58 22 0 22 C0 14.74 0 7.48 0 0 Z " fill="#FC6500" transform="translate(168,41)"/>
<path d="M0 0 C7.26 0 14.52 0 22 0 C22 7.26 22 14.52 22 22 C28.93 22 35.86 22 43 22 C42.96041531 15.13387193 42.96041531 15.13387193 42.90991211 8.26782227 C42.90741455 7.41760498 42.90491699 6.5673877 42.90234375 5.69140625 C42.89710693 4.81685791 42.89187012 3.94230957 42.88647461 3.04125977 C43 1 43 1 44 0 C45.63472882 -0.08700342 47.27314055 -0.10701063 48.91015625 -0.09765625 C49.800979 -0.09515869 50.69180176 -0.09266113 51.60961914 -0.09008789 C53.31879517 -0.07643188 53.31879517 -0.07643188 55.0625 -0.0625 C60.4765625 -0.0315625 60.4765625 -0.0315625 66 0 C66 7.26 66 14.52 66 22 C73.26 22 80.52 22 88 22 C88 36.19 88 50.38 88 65 C94.93 65 101.86 65 109 65 C109 79.85 109 94.7 109 110 C101.74 110 94.48 110 87 110 C87 102.41 87 94.82 87 87 C79.74 87 72.48 87 65 87 C65 94.26 65 101.52 65 109 C58.07 109 51.14 109 44 109 C44 101.74 44 94.48 44 87 C36.74 87 29.48 87 22 87 C22 94.26 22 101.52 22 109 C14.74 109 7.48 109 0 109 C0 101.74 0 94.48 0 87 C-6.93 87 -13.86 87 -21 87 C-21 94.26 -21 101.52 -21 109 C-28.26 109 -35.52 109 -43 109 C-43 94.48 -43 79.96 -43 65 C-36.07 65 -29.14 65 -22 65 C-22 50.81 -22 36.62 -22 22 C-14.74 22 -7.48 22 0 22 C0 14.74 0 7.48 0 0 Z " fill="#FB6500" transform="translate(60,19)"/>
<path d="M0 0 C65.632 0 65.632 0 70.64453125 4.46484375 C74.3083488 9.08443979 75.11529633 12.16704677 75.16113281 17.94873047 C75.17074036 18.93009979 75.1803479 19.91146912 75.19024658 20.9225769 C75.19449646 21.9767984 75.19874634 23.0310199 75.203125 24.1171875 C75.20882507 25.20709991 75.21452515 26.29701233 75.22039795 27.41995239 C75.22983933 29.72478263 75.2363785 32.02962631 75.24023438 34.33447266 C75.2499441 37.85473211 75.28097798 41.37440867 75.3125 44.89453125 C75.31902997 47.13541321 75.32428047 49.37629933 75.328125 51.6171875 C75.3404718 52.66736053 75.3528186 53.71753357 75.36553955 54.79953003 C75.34893547 60.26399916 75.18187048 64.32524588 72 69 C69.8125 70.375 69.8125 70.375 68 71 C68 71.66 68 72.32 68 73 C68.66 73 69.32 73 70 73 C70 73.66 70 74.32 70 75 C70.61875 75.0825 71.2375 75.165 71.875 75.25 C74 76 74 76 75.11465454 77.72235107 C76.13917059 80.35803171 76.26681797 82.36686384 76.29052734 85.19238281 C76.30328705 86.22735901 76.31604675 87.26233521 76.32919312 88.32867432 C76.33141876 89.44224304 76.33364441 90.55581177 76.3359375 91.703125 C76.3459227 93.4307608 76.3459227 93.4307608 76.35610962 95.19329834 C76.36623477 97.63096521 76.37092668 100.06865978 76.37060547 102.50634766 C76.37496731 106.22214957 76.41125928 109.93675286 76.44921875 113.65234375 C76.45508927 116.02343345 76.45905709 118.39452878 76.4609375 120.765625 C76.47530853 121.8710968 76.48967957 122.9765686 76.50448608 124.11553955 C76.46790965 130.34263233 76.1105978 136.01499277 72 141 C69.86117554 142.21002197 69.86117554 142.21002197 68 143 C68 143.66 68 144.32 68 145 C47.7241249 155.13793755 22.66911751 146 0 146 C0 97.82 0 49.64 0 0 Z " fill="#FCFCFC" transform="translate(510,38)"/>
<path d="M0 0 C63 0 63 0 73 6 C76.19799852 10.39417161 76.43769525 14.54890404 76.40405273 19.83789062 C76.41091599 20.5996611 76.41777924 21.36143158 76.42485046 22.14628601 C76.44306529 24.64980004 76.4392892 27.1526843 76.43359375 29.65625 C76.43815768 31.40450239 76.44346388 33.15275298 76.44947815 34.90100098 C76.45839846 38.55923771 76.45599796 42.21725601 76.44604492 45.87548828 C76.43454861 50.55631703 76.45478207 55.23639212 76.48396206 59.91712189 C76.50233303 63.52545942 76.50202997 67.13361656 76.49632454 70.74198914 C76.49617148 72.46751463 76.50220339 74.19305247 76.51461601 75.91853333 C76.52954403 78.33353613 76.51883749 80.74714918 76.50170898 83.16210938 C76.51137695 83.86981979 76.52104492 84.57753021 76.53100586 85.3066864 C76.4570409 90.30301355 75.12892643 93.14877605 72 97 C69.37143738 98.52533378 66.94527354 99.11641794 64 100 C64.59049848 105.17892772 65.78846846 109.8695451 67.50390625 114.796875 C67.7466478 115.51232483 67.98938934 116.22777466 68.23948669 116.96490479 C69.00803161 119.22862846 69.784479 121.48951727 70.5625 123.75 C71.34350613 126.02494796 72.12264052 128.30045891 72.89622498 130.57794189 C73.37585244 131.9895851 73.85979025 133.3997729 74.348526 134.80828857 C75.32412816 137.67603146 76 139.94666038 76 143 C76.66 143 77.32 143 78 143 C78 144.32 78 145.64 78 147 C67.77 147 57.54 147 47 147 C43.62404802 137.9974614 43.62404802 137.9974614 42.6496582 134.81884766 C42.42965652 134.10516022 42.20965485 133.39147278 41.98298645 132.65615845 C41.75785873 131.91626678 41.53273102 131.17637512 41.30078125 130.4140625 C41.0608696 129.63106781 40.82095795 128.84807312 40.57377625 128.04135132 C40.07258707 126.40311382 39.57266678 124.76448762 39.07397461 123.12548828 C38.30786051 120.6097651 37.5360075 118.09585047 36.76367188 115.58203125 C36.27569838 113.98447982 35.7880561 112.38682717 35.30078125 110.7890625 C35.06958084 110.03702545 34.83838043 109.2849884 34.60017395 108.51016235 C33 103.22977584 33 103.22977584 33 101 C32.01 101 31.02 101 30 101 C30 116.18 30 131.36 30 147 C20.1 147 10.2 147 0 147 C0 98.49 0 49.98 0 0 Z " fill="#FBFBFB" transform="translate(350,38)"/>
<path d="M0 0 C10.56 0 21.12 0 32 0 C33.23767721 4.33187022 34.32419971 8.28591874 35.11367798 12.66078186 C35.30995285 13.73874527 35.50622772 14.81670868 35.70845032 15.92733765 C35.91632675 17.08963898 36.12420319 18.25194031 36.33837891 19.44946289 C36.56300308 20.68930435 36.78762726 21.92914581 37.01905823 23.20655823 C37.63184011 26.59012658 38.24006437 29.97449879 38.847157 33.359092 C39.35531923 36.18992478 39.86564408 39.020366 40.37593496 41.85081571 C41.57977891 48.52861364 42.77983505 55.20708466 43.97753906 61.88598633 C45.21166908 68.76762279 46.45226922 75.64807064 47.69603598 82.52797133 C48.7656638 88.4459513 49.83123688 94.36465161 50.8935827 100.28394312 C51.52727157 103.81455295 52.16248698 107.3448704 52.8016243 110.87449837 C53.5137903 114.80859896 54.2174929 118.74416803 54.92041016 122.67993164 C55.2382975 124.42641998 55.2382975 124.42641998 55.56260681 126.20819092 C55.75324203 127.2833345 55.94387726 128.35847809 56.14028931 129.46620178 C56.30730158 130.39549531 56.47431385 131.32478884 56.6463871 132.28224277 C57.02803291 135.21545209 57.05981596 138.04533554 57 141 C57.66 141 58.32 141 59 141 C59 142.98 59 144.96 59 147 C54.74585377 147.02465622 50.49174502 147.04283899 46.23754883 147.05493164 C44.78929927 147.05997101 43.34105483 147.06680253 41.89282227 147.07543945 C39.81525412 147.08752247 37.73775303 147.09323211 35.66015625 147.09765625 C34.40855713 147.10289307 33.15695801 147.10812988 31.86743164 147.11352539 C29 147 29 147 28 146 C27.59940264 143.14318523 27.24851776 140.30396381 26.9375 137.4375 C26.628125 134.653125 26.31875 131.86875 26 129 C19.4 129 12.8 129 6 129 C5.855625 131.2275 5.71125 133.455 5.5625 135.75 C5.30659027 139.69832148 4.96186931 143.15252277 4 147 C-5.9 147 -15.8 147 -26 147 C-24.69525755 137.86680283 -23.32062418 128.80929071 -21.67749023 119.73999023 C-21.45447235 118.49752029 -21.23145447 117.25505035 -21.00167847 115.97492981 C-20.39862623 112.61561839 -19.7925201 109.25686491 -19.18577456 105.89821887 C-18.54787639 102.36418955 -17.91279 98.82965488 -17.27735901 95.29518127 C-16.21235427 89.37349126 -15.14553047 83.45213149 -14.07739258 77.53100586 C-12.57212538 69.18666517 -11.07033606 60.84170121 -9.56915367 52.49662483 C-8.52567583 46.69665348 -7.48138772 40.89682798 -6.43693662 35.09703183 C-6.1845704 33.69564214 -5.93222486 32.29424872 -5.67989993 30.89285159 C-4.85175002 26.2935802 -4.02266235 21.69447863 -3.19311523 17.09545898 C-2.98478561 15.93853546 -2.77645599 14.78161194 -2.56181335 13.58963013 C-2.36980347 12.52597733 -2.17779358 11.46232452 -1.97996521 10.36643982 C-1.81387473 9.44531623 -1.64778425 8.52419264 -1.47666073 7.57515621 C-1.0084305 5.04554573 -0.50452448 2.5226224 0 0 Z " fill="#FCFCFC" transform="translate(923,38)"/>
<path d="M0 0 C0.9607695 0.00007553 1.921539 0.00015106 2.91142273 0.00022888 C3.94588028 0.00539017 4.98033783 0.01055145 6.04614258 0.01586914 C7.63789055 0.01799156 7.63789055 0.01799156 9.26179504 0.02015686 C12.65478318 0.02575933 16.0477056 0.03831225 19.44067383 0.05102539 C21.739501 0.05604007 24.03832921 0.06060303 26.3371582 0.06469727 C31.97585254 0.07572956 37.61450849 0.0924701 43.25317383 0.11352539 C43.71985326 1.98646553 44.17585304 3.86206587 44.62817383 5.73852539 C44.8834082 6.78266602 45.13864258 7.82680664 45.40161133 8.90258789 C46.61949332 14.92495845 47.38424134 21.03099795 48.25317383 27.11352539 C36.04317383 27.44352539 23.83317383 27.77352539 11.25317383 28.11352539 C11.25317383 38.67352539 11.25317383 49.23352539 11.25317383 60.11352539 C18.79141037 60.0348911 18.79141037 60.0348911 26.3293457 59.93334961 C40.19588559 59.86078669 40.19588559 59.86078669 45.62817383 63.86352539 C48.743107 68.17650979 49.50295719 72.63626486 49.52783203 77.8684082 C49.53736404 78.97686096 49.54689606 80.08531372 49.55671692 81.22735596 C49.55580551 82.41182312 49.5548941 83.59629028 49.55395508 84.81665039 C49.5582402 86.04961853 49.56252533 87.28258667 49.56694031 88.55291748 C49.57267549 91.1585631 49.57318987 93.76422473 49.56884766 96.36987305 C49.56569611 100.33548673 49.58912932 104.30034806 49.61450195 108.26586914 C49.616776 110.80362862 49.61747795 113.3413901 49.61645508 115.87915039 C49.62566483 117.05552063 49.63487457 118.23189087 49.6443634 119.44390869 C49.60119517 127.21335295 49.25238495 135.21516678 44.35083008 141.58618164 C43.67922852 142.11083008 43.00762695 142.63547852 42.31567383 143.17602539 C41.31213867 143.99780273 41.31213867 143.99780273 40.28833008 144.83618164 C36.89004343 146.9690794 33.71484256 147.23841524 29.76000977 147.22705078 C28.43909332 147.22693748 28.43909332 147.22693748 27.0914917 147.2268219 C26.14969055 147.22166061 25.2078894 147.21649933 24.23754883 147.21118164 C22.78109955 147.20905922 22.78109955 147.20905922 21.29522705 147.20689392 C18.19784448 147.20130202 15.10053451 147.18875098 12.00317383 147.17602539 C9.90161237 147.17100934 7.80004978 147.16644662 5.69848633 147.16235352 C0.5500209 147.15133524 -4.59839033 147.13407614 -9.74682617 147.11352539 C-11.21159802 142.08616248 -12.4193883 137.12974615 -13.37182617 131.98852539 C-13.50588867 131.29887695 -13.63995117 130.60922852 -13.77807617 129.89868164 C-14.4750947 126.17887865 -14.74682617 122.93343527 -14.74682617 119.11352539 C-3.52682617 119.11352539 7.69317383 119.11352539 19.25317383 119.11352539 C19.25317383 108.22352539 19.25317383 97.33352539 19.25317383 86.11352539 C10.63802446 85.90394992 10.63802446 85.90394992 2.0222168 85.72558594 C0.40017334 85.67591675 0.40017334 85.67591675 -1.25463867 85.62524414 C-2.35437012 85.59906006 -3.45410156 85.57287598 -4.5871582 85.54589844 C-8.20531566 85.0507851 -10.63568272 84.00764137 -13.74682617 82.11352539 C-15.74682617 79.11352539 -15.74682617 79.11352539 -15.74682617 76.11352539 C-16.40682617 76.11352539 -17.06682617 76.11352539 -17.74682617 76.11352539 C-17.74682617 54.99352539 -17.74682617 33.87352539 -17.74682617 12.11352539 C-17.08682617 12.11352539 -16.42682617 12.11352539 -15.74682617 12.11352539 C-15.72620117 11.41227539 -15.70557617 10.71102539 -15.68432617 9.98852539 C-14.30812863 5.76818625 -11.34090235 3.59328101 -7.74682617 1.11352539 C-4.84242856 0.14539285 -3.01864377 -0.00792295 0 0 Z " fill="#FAFAFA" transform="translate(781.746826171875,37.886474609375)"/>
<path d="M0 0 C19.47 0 38.94 0 59 0 C63 21 63 21 63 27 C52.77 27 42.54 27 32 27 C32 38.22 32 49.44 32 61 C39.59 61 47.18 61 55 61 C55 69.58 55 78.16 55 87 C47.08 87 39.16 87 31 87 C31 97.56 31 108.12 31 119 C41.23 119 51.46 119 62 119 C61.39061664 125.70321693 60.78022467 132.07177075 59.5 138.625 C59.36980469 139.33011719 59.23960937 140.03523437 59.10546875 140.76171875 C58.1313058 145.8686942 58.1313058 145.8686942 57 147 C38.19 147 19.38 147 0 147 C0 98.49 0 49.98 0 0 Z " fill="#F8F8F8" transform="translate(437,38)"/>
<path d="M0 0 C18.81 0 37.62 0 57 0 C58.59712675 4.79138025 59.72588379 9.14947216 60.625 14.0625 C60.82609375 15.10374023 60.82609375 15.10374023 61.03125 16.16601562 C61.72612029 19.8991708 62 23.16908485 62 27 C51.77 27 41.54 27 31 27 C31 38.55 31 50.1 31 62 C38.92 62 46.84 62 55 62 C55 70.58 55 79.16 55 88 C47.08 88 39.16 88 31 88 C31 97.9 31 107.8 31 118 C40.9 118 50.8 118 61 118 C60 128 60 128 56 147 C37.52 147 19.04 147 0 147 C0 98.49 0 49.98 0 0 Z " fill="#FBFBFB" transform="translate(598,38)"/>
<path d="M0 0 C19.14 0 38.28 0 58 0 C59.46349533 5.12223365 60.6677711 9.98623073 61.625 15.1875 C61.82609375 16.23454102 61.82609375 16.23454102 62.03125 17.30273438 C62.65002258 20.62074451 63 23.60954408 63 27 C52.44 27 41.88 27 31 27 C31 38.55 31 50.1 31 62 C38.92 62 46.84 62 55 62 C55 70.25 55 78.5 55 87 C47.08 87 39.16 87 31 87 C31 97.56 31 108.12 31 119 C41.23 119 51.46 119 62 119 C60.65918764 128.3856865 58.98654007 137.72947966 57 147 C38.19 147 19.38 147 0 147 C0 98.49 0 49.98 0 0 Z " fill="#F9F9F9" transform="translate(1050,38)"/>
<path d="M0 0 C10.23 0 20.46 0 31 0 C31 39.27 31 78.54 31 119 C40.57 119 50.14 119 60 119 C60 121.31 60 123.62 60 126 C59.34 126 58.68 126 58 126 C57.90912109 127.01707031 57.90912109 127.01707031 57.81640625 128.0546875 C57.73261719 128.98539063 57.64882813 129.91609375 57.5625 130.875 C57.48128906 131.77992188 57.40007813 132.68484375 57.31640625 133.6171875 C56.89896749 138.08017479 56.44602214 142.5397786 56 147 C37.52 147 19.04 147 0 147 C0 98.49 0 49.98 0 0 Z " fill="#F9F9F9" transform="translate(670,38)"/>
<path d="M0 0 C0.97484848 0.00222061 1.94969696 0.00444122 2.9540863 0.00672913 C4.05515213 0.00680466 5.15621796 0.00688019 6.29064941 0.00695801 C7.48854599 0.01211929 8.68644257 0.01728058 9.92063904 0.02259827 C11.14000656 0.02401321 12.35937408 0.02542816 13.61569214 0.02688599 C17.52856349 0.03250485 21.4413786 0.04506055 25.35423279 0.05775452 C27.99941426 0.06276709 30.64459662 0.06733041 33.28977966 0.07142639 C39.79045005 0.08248041 46.2910874 0.09923688 52.79173279 0.12025452 C53.79974955 3.86814662 54.79674567 7.61888418 55.79173279 11.37025452 C56.07790466 12.43373108 56.36407654 13.49720764 56.65892029 14.59291077 C57.06497498 16.1301178 57.06497498 16.1301178 57.47923279 17.69837952 C57.73059998 18.64100647 57.98196716 19.58363342 58.24095154 20.55482483 C58.79173279 23.12025452 58.79173279 23.12025452 58.79173279 27.12025452 C52.52173279 27.12025452 46.25173279 27.12025452 39.79173279 27.12025452 C39.79173279 66.72025452 39.79173279 106.32025452 39.79173279 147.12025452 C29.89173279 147.12025452 19.99173279 147.12025452 9.79173279 147.12025452 C9.79173279 107.52025452 9.79173279 67.92025452 9.79173279 27.12025452 C3.19173279 27.12025452 -3.40826721 27.12025452 -10.20826721 27.12025452 C-9.06651456 22.8066355 -7.9200787 18.49435947 -6.77076721 14.18275452 C-6.44527893 12.9510553 -6.11979065 11.71935608 -5.78443909 10.45033264 C-5.47184143 9.28050842 -5.15924377 8.1106842 -4.83717346 6.90541077 C-4.54914856 5.82138977 -4.26112366 4.73736877 -3.96437073 3.62049866 C-2.91753578 0.1588788 -2.91753578 0.1588788 0 0 Z " fill="#FDFDFD" transform="translate(846.2082672119141,37.87974548339844)"/>
<path d="M0 0 C7.28421548 -0.02312916 14.5684231 -0.04091801 21.85266781 -0.05181217 C25.23471813 -0.05703975 28.6167434 -0.06413511 31.9987793 -0.07543945 C35.88329777 -0.08834267 39.76780597 -0.09322924 43.65234375 -0.09765625 C44.87211411 -0.10281754 46.09188446 -0.10797882 47.34861755 -0.11329651 C49.03024742 -0.11340981 49.03024742 -0.11340981 50.74584961 -0.11352539 C51.73846298 -0.115746 52.73107635 -0.11796661 53.75376892 -0.12025452 C56 0 56 0 57 1 C58.40837448 7.26066466 59.27866193 13.62818043 60 20 C60.66 20 61.32 20 62 20 C62 22.31 62 24.62 62 27 C55.73 27 49.46 27 43 27 C43 66.27 43 105.54 43 146 C33.1 146 23.2 146 13 146 C13 106.73 13 67.46 13 27 C6.73 27 0.46 27 -6 27 C-4.875 16.875 -4.875 16.875 -3.80859375 13.18359375 C-3.58623047 12.40048828 -3.36386719 11.61738281 -3.13476562 10.81054688 C-2.90466797 10.02744141 -2.67457031 9.24433594 -2.4375 8.4375 C-2.20353516 7.61958984 -1.96957031 6.80167969 -1.72851562 5.95898438 C-1.15880046 3.97079473 -0.58033086 1.98511701 0 0 Z " fill="#FDFDFD" transform="translate(980,38)"/>
<path d="M0 0 C3.3 0 6.6 0 10 0 C10.33 7.59 10.66 15.18 11 23 C11.66 23 12.32 23 13 23 C12.97679687 22.09378906 12.95359375 21.18757813 12.9296875 20.25390625 C12.82426709 13.13802862 13.10597738 6.86583201 15 0 C17.31 0 19.62 0 22 0 C22.33868777 2.20751848 22.67071689 4.41605911 23 6.625 C23.185625 7.85476562 23.37125 9.08453125 23.5625 10.3515625 C23.95402516 13.6166027 24.08080924 16.71712451 24 20 C24.66 20 25.32 20 26 20 C25.98839844 19.21496094 25.97679687 18.42992187 25.96484375 17.62109375 C25.91636303 11.97655245 25.89076758 6.54616212 27 1 C28 0 28 0 30.06640625 -0.09765625 C31.30197266 -0.08025391 31.30197266 -0.08025391 32.5625 -0.0625 C33.38878906 -0.05347656 34.21507812 -0.04445312 35.06640625 -0.03515625 C35.70449219 -0.02355469 36.34257813 -0.01195312 37 0 C36.32826267 4.8019623 35.65264998 9.60335856 34.97363281 14.40429688 C34.7437578 16.03338309 34.51489339 17.66261228 34.28710938 19.29199219 C33.08079522 27.91608024 31.84100167 36.48321659 30 45 C27.36 45 24.72 45 22 45 C20.45263302 39.0315845 19.17692267 33.05274518 18 27 C17.01 32.94 16.02 38.88 15 45 C12.36 45 9.72 45 7 45 C5.54208901 40.19075193 4.49323909 35.50335197 3.7109375 30.52734375 C3.60278717 29.84120499 3.49463684 29.15506622 3.38320923 28.44813538 C3.15759242 27.00897612 2.93417913 25.56946981 2.71289062 24.12963867 C2.37520549 21.93883319 2.02791155 19.74969906 1.6796875 17.56054688 C1.46035971 16.15373579 1.24159065 14.74683746 1.0234375 13.33984375 C0.72832275 11.44286743 0.72832275 11.44286743 0.42724609 9.50756836 C0.03564093 6.29260188 -0.08139764 3.23384755 0 0 Z " fill="#F13300" transform="translate(982,213)"/>
<path d="M0 0 C1.47906892 -0.02689216 2.95827483 -0.04634621 4.4375 -0.0625 C5.26121094 -0.07410156 6.08492188 -0.08570313 6.93359375 -0.09765625 C9 0 9 0 10 1 C10.97196778 7.69577806 11.11368403 14.24211575 11 21 C11.66 21 12.32 21 13 21 C13.06058594 20.07058594 13.12117188 19.14117187 13.18359375 18.18359375 C14.01581722 5.90509666 14.01581722 5.90509666 15 0 C17.31 0 19.62 0 22 0 C22.31919939 1.31088682 22.62985947 2.62385248 22.9375 3.9375 C23.11152344 4.66839844 23.28554688 5.39929688 23.46484375 6.15234375 C24.20034441 10.06606622 24.56023586 14.04212275 25 18 C25.99 12.06 26.98 6.12 28 0 C30.97 0 33.94 0 37 0 C36.50960437 9.39345509 35.44196692 18.55093008 33.84326172 27.81860352 C33.49268859 29.85496962 33.15394715 31.89307759 32.81640625 33.93164062 C31.1351765 43.8648235 31.1351765 43.8648235 30 45 C27.36 45 24.72 45 22 45 C21.01 38.4 20.02 31.8 19 25 C18.34 25 17.68 25 17 25 C17.02320313 25.85722656 17.04640625 26.71445313 17.0703125 27.59765625 C17.16826645 33.80373869 17.17409407 39.1571222 15 45 C12.36 45 9.72 45 7 45 C6.30516781 40.85589065 5.61144192 36.71159802 4.91870117 32.56713867 C4.68332158 31.15986232 4.44764981 29.7526348 4.21166992 28.34545898 C3.87079619 26.31246786 3.53100461 24.27929826 3.19140625 22.24609375 C2.98717041 21.02591553 2.78293457 19.8057373 2.57250977 18.54858398 C2.17338759 16.07470731 1.814983 13.59406489 1.48803711 11.10961914 C1.33441326 8.1381061 1.33441326 8.1381061 0 7 C-0.04092937 4.66702567 -0.04241723 2.33294775 0 0 Z " fill="#F33400" transform="translate(496,213)"/>
<path d="M0 0 C1.21429688 -0.02578125 2.42859375 -0.0515625 3.6796875 -0.078125 C7.56536676 0.29193969 9.17919943 0.69883139 12.125 3.25 C12.61681039 6.27268225 12.78019082 8.72837989 12.71875 11.75 C12.71879028 12.58208984 12.71883057 13.41417969 12.71887207 14.27148438 C12.71351268 16.03002478 12.69591177 17.78856424 12.66699219 19.546875 C12.62515027 22.2403269 12.62592067 24.93127811 12.6328125 27.625 C12.62231954 29.33335073 12.60938085 31.04168855 12.59375 32.75 C12.59354858 33.55630859 12.59334717 34.36261719 12.59313965 35.19335938 C12.47404131 40.81359493 12.47404131 40.81359493 10.78625488 42.92382812 C7.51571648 45.53468338 4.26829896 45.41244826 0.25 45.4375 C-0.77867187 45.45167969 -1.80734375 45.46585937 -2.8671875 45.48046875 C-5.96350891 45.24321815 -8.11764588 44.65832603 -10.875 43.25 C-12.47419459 40.05161082 -12.03801759 36.57946642 -12.04296875 33.06640625 C-12.04629715 32.2550975 -12.04962555 31.44378876 -12.05305481 30.6078949 C-12.0581213 28.89053922 -12.06046322 27.17317369 -12.06030273 25.45581055 C-12.06248837 22.82649536 -12.08064436 20.19760024 -12.09960938 17.56835938 C-12.1025435 15.9010431 -12.10452817 14.23372484 -12.10546875 12.56640625 C-12.11624702 11.38504845 -12.11624702 11.38504845 -12.12724304 10.17982483 C-12.11113717 6.3369531 -12.05766282 4.52399423 -9.875 1.25 C-6.42834258 0.10111419 -3.63148095 0.0460653 0 0 Z " fill="#F43500" transform="translate(462.875,212.75)"/>
<path d="M0 0 C1.1034375 -0.03996094 2.206875 -0.07992187 3.34375 -0.12109375 C7.58527865 0.62957283 8.84095264 2.0856687 11.5 5.4375 C11.97665878 8.23389816 12.15871405 10.40505921 12.09375 13.1875 C12.09379028 13.92323242 12.09383057 14.65896484 12.09387207 15.41699219 C12.08852932 16.96688415 12.0709994 18.51677655 12.04199219 20.06640625 C12.00012335 22.43053515 12.0009277 24.79181261 12.0078125 27.15625 C11.99731891 28.66668634 11.98437988 30.17710808 11.96875 31.6875 C11.96854858 32.3897168 11.96834717 33.09193359 11.96813965 33.81542969 C11.86416001 38.15572394 11.22758544 41.01918326 8.5 44.4375 C5.33990467 45.49086511 2.9446864 45.63782888 -0.375 45.6875 C-1.91800781 45.72617187 -1.91800781 45.72617187 -3.4921875 45.765625 C-6.91220687 45.39253198 -8.75025853 44.46777507 -11.5 42.4375 C-13.04611184 39.34527632 -12.64201986 36.08395215 -12.6328125 32.69140625 C-12.63376923 31.92448959 -12.63472595 31.15757294 -12.63571167 30.36741638 C-12.63639262 28.744211 -12.63454426 27.1210029 -12.63037109 25.49780273 C-12.62502891 23.01344675 -12.63031515 20.52927216 -12.63671875 18.04492188 C-12.63605781 16.4687496 -12.63477632 14.89257744 -12.6328125 13.31640625 C-12.63483673 12.57258194 -12.63686096 11.82875763 -12.63894653 11.06239319 C-12.62466415 7.91769165 -12.50205986 5.44367959 -11.5 2.4375 C-7.71713526 0.40215429 -4.25266578 0.08445715 0 0 Z " fill="#F03200" transform="translate(949.5,212.5625)"/>
<path d="M0 0 C18 0 18 0 22 3 C22.41706157 6.02803875 22.58455782 8.68786146 22.56640625 11.71875 C22.57570412 13.00017883 22.57570412 13.00017883 22.58518982 14.30749512 C22.59229131 16.11302551 22.58910817 17.91862134 22.57641602 19.72412109 C22.56254773 22.49047995 22.59661459 25.25345824 22.63476562 28.01953125 C22.63571679 29.77343833 22.63385814 31.52734965 22.62890625 33.28125 C22.64216446 34.10943237 22.65542267 34.93761475 22.66908264 35.79089355 C22.63110352 38.12695312 22.63110352 38.12695312 22 42 C17 45 17 45 0 45 C0 30.15 0 15.3 0 0 Z " fill="#F63500" transform="translate(635,213)"/>
<path d="M0 0 C6.6 0 13.2 0 20 0 C23 3 23 3 23.34057617 5.72729492 C23.32486572 6.80084229 23.30915527 7.87438965 23.29296875 8.98046875 C23.28330078 10.14384766 23.27363281 11.30722656 23.26367188 12.50585938 C23.23853516 13.72080078 23.21339844 14.93574219 23.1875 16.1875 C23.16719727 18.02731445 23.16719727 18.02731445 23.14648438 19.90429688 C23.11108741 22.93663664 23.0617076 25.96809996 23 29 C22.01 29.33 21.02 29.66 20 30 C20.433125 31.24716797 20.433125 31.24716797 20.875 32.51953125 C21.24625 33.60621094 21.6175 34.69289062 22 35.8125 C22.37125 36.89144531 22.7425 37.97039062 23.125 39.08203125 C24 42 24 42 24 45 C21.03 45 18.06 45 15 45 C13.13459373 40.29593201 11.63156995 36.05255964 11 31 C10.34 31 9.68 31 9 31 C9 35.62 9 40.24 9 45 C6.03 45 3.06 45 0 45 C0 30.15 0 15.3 0 0 Z " fill="#F63400" transform="translate(1081,213)"/>
<path d="M0 0 C2.64 0 5.28 0 8 0 C8.50833591 1.24663331 9.00631145 2.49749387 9.5 3.75 C9.7784375 4.44609375 10.056875 5.1421875 10.34375 5.859375 C11 8 11 8 11 12 C11.66 12 12.32 12 13 12 C13 8.04 13 4.08 13 0 C15.97 0 18.94 0 22 0 C22 14.85 22 29.7 22 45 C19.03 45 16.06 45 13 45 C10.54970669 39.28264895 9.66733709 35.20970773 10 29 C9.34 29 8.68 29 8 29 C8 34.28 8 39.56 8 45 C5.36 45 2.72 45 0 45 C0 30.15 0 15.3 0 0 Z " fill="#F53400" transform="translate(407,213)"/>
<path d="M0 0 C5.94 0 11.88 0 18 0 C18 16.5 18 33 18 50 C12.39 50 6.78 50 1 50 C0 49 0 49 -0.12025452 47.01951599 C-0.11803391 46.15125687 -0.11581329 45.28299774 -0.11352539 44.38842773 C-0.11344986 43.40748642 -0.11337433 42.4265451 -0.11329651 41.4158783 C-0.10813522 40.3492244 -0.10297394 39.2825705 -0.09765625 38.18359375 C-0.0962413 37.0974025 -0.09482635 36.01121124 -0.09336853 34.8921051 C-0.08775048 31.40720925 -0.07519492 27.92237658 -0.0625 24.4375 C-0.05748733 22.08138113 -0.05292402 19.72526126 -0.04882812 17.36914062 C-0.03777518 11.57940257 -0.02049846 5.78971201 0 0 Z " fill="#161616" transform="translate(379,64)"/>
<path d="M0 0 C3.46679688 0.04882812 3.46679688 0.04882812 6.93359375 0.09765625 C7.26359375 5.37765625 7.59359375 10.65765625 7.93359375 16.09765625 C9.25359375 10.81765625 10.57359375 5.53765625 11.93359375 0.09765625 C14.90359375 0.09765625 17.87359375 0.09765625 20.93359375 0.09765625 C20.48968282 4.80311216 19.70696786 8.91118112 18.24609375 13.41015625 C16.5223919 19.4598477 17.37961075 24.10372182 18.93359375 30.09765625 C19.31471387 31.70037992 19.69012144 33.30447762 20.05859375 34.91015625 C20.30609375 35.98523438 20.30609375 35.98523438 20.55859375 37.08203125 C21.05943737 39.77406569 21.07349702 42.36954257 20.93359375 45.09765625 C17.96359375 45.09765625 14.99359375 45.09765625 11.93359375 45.09765625 C10.22695668 39.49013444 9.02256042 33.85527791 7.93359375 28.09765625 C7.87300781 29.24105469 7.81242187 30.38445312 7.75 31.5625 C7.66560947 33.0533993 7.58096073 34.544284 7.49609375 36.03515625 C7.43711914 37.16727539 7.43711914 37.16727539 7.37695312 38.32226562 C7.046875 43.984375 7.046875 43.984375 5.93359375 45.09765625 C4.12109375 45.23046875 4.12109375 45.23046875 1.93359375 45.22265625 C1.21171875 45.22523438 0.48984375 45.2278125 -0.25390625 45.23046875 C-2.06640625 45.09765625 -2.06640625 45.09765625 -3.06640625 44.09765625 C-3.16425966 42.75221298 -3.1943861 41.40173062 -3.19580078 40.05273438 C-3.19895294 39.19514526 -3.2021051 38.33755615 -3.20535278 37.45397949 C-3.20332855 36.52170532 -3.20130432 35.58943115 -3.19921875 34.62890625 C-3.20017548 33.67826294 -3.2011322 32.72761963 -3.20211792 31.74816895 C-3.20279982 29.73396743 -3.20094487 27.71976373 -3.19677734 25.70556641 C-3.19142923 22.6109527 -3.19672202 19.51648415 -3.203125 16.421875 C-3.20246422 14.47005176 -3.20118306 12.51822861 -3.19921875 10.56640625 C-3.20124298 9.63413208 -3.20326721 8.70185791 -3.20535278 7.74133301 C-3.20220062 6.8837439 -3.19904846 6.02615479 -3.19580078 5.14257812 C-3.19500519 4.38392456 -3.19420959 3.625271 -3.19338989 2.84362793 C-3.00511966 0.25499138 -2.58306257 0.1220729 0 0 Z " fill="#F03200" transform="translate(364.06640625,212.90234375)"/>
<path d="M0 0 C18 0 18 0 22 3 C22.50170898 5.77148438 22.50170898 5.77148438 22.49609375 9.09375 C22.49706055 10.88619141 22.49706055 10.88619141 22.49804688 12.71484375 C22.47806641 13.96394531 22.45808594 15.21304688 22.4375 16.5 C22.44458984 17.74910156 22.45167969 18.99820313 22.45898438 20.28515625 C22.39462136 29.46431203 22.39462136 29.46431203 20.62792969 31.86254883 C18.31412621 33.47922705 16.59933766 33.29607809 13.8125 33.1875 C12.91144531 33.16042969 12.01039063 33.13335937 11.08203125 33.10546875 C10.39496094 33.07066406 9.70789063 33.03585938 9 33 C9.01160156 33.78246094 9.02320313 34.56492188 9.03515625 35.37109375 C9.04417969 36.38300781 9.05320312 37.39492187 9.0625 38.4375 C9.07410156 39.44683594 9.08570313 40.45617187 9.09765625 41.49609375 C9 44 9 44 8 45 C5.36 45 2.72 45 0 45 C0 30.15 0 15.3 0 0 Z " fill="#F83500" transform="translate(893,213)"/>
<path d="M0 0 C1.26328125 0.01804688 2.5265625 0.03609375 3.828125 0.0546875 C4.79234375 0.07789063 5.7565625 0.10109375 6.75 0.125 C7.08 3.095 7.41 6.065 7.75 9.125 C4.45 9.125 1.15 9.125 -2.25 9.125 C-2.25 18.035 -2.25 26.945 -2.25 36.125 C-0.6 36.125 1.05 36.125 2.75 36.125 C2.75 30.515 2.75 24.905 2.75 19.125 C5.39 19.125 8.03 19.125 10.75 19.125 C10.75 27.705 10.75 36.285 10.75 45.125 C8.213125 45.16625 5.67625 45.2075 3.0625 45.25 C2.27270752 45.26820801 1.48291504 45.28641602 0.66918945 45.30517578 C-3.43541979 45.33735251 -6.58846666 45.01527534 -10.25 43.125 C-11.25 42.125 -11.25 42.125 -11.36352539 38.33959961 C-11.36336622 36.65217271 -11.35766917 34.96474095 -11.34765625 33.27734375 C-11.3462413 32.3909169 -11.34482635 31.50449005 -11.34336853 30.59120178 C-11.33775215 27.74826746 -11.32519691 24.90541069 -11.3125 22.0625 C-11.30748711 20.13997509 -11.30292384 18.21744896 -11.29882812 16.29492188 C-11.28777741 11.57158451 -11.27050183 6.84830542 -11.25 2.125 C-7.3539529 -0.03200692 -4.46825238 -0.08274541 0 0 Z " fill="#F73400" transform="translate(691.25,212.875)"/>
<path d="M0 0 C2.97922593 -0.02683987 5.95821295 -0.04676037 8.9375 -0.0625 C9.78763672 -0.07087891 10.63777344 -0.07925781 11.51367188 -0.08789062 C12.32255859 -0.09111328 13.13144531 -0.09433594 13.96484375 -0.09765625 C14.7137085 -0.10289307 15.46257324 -0.10812988 16.23413086 -0.11352539 C18 0 18 0 19 1 C19.04092937 3.33297433 19.04241723 5.66705225 19 8 C16.03 8 13.06 8 10 8 C10 11.63 10 15.26 10 19 C12.31 19 14.62 19 17 19 C17 21.64 17 24.28 17 27 C14.69 27 12.38 27 10 27 C10 29.97 10 32.94 10 36 C12.97 36 15.94 36 19 36 C18.67 38.97 18.34 41.94 18 45 C15.18743719 45.02684312 12.37512759 45.04676188 9.5625 45.0625 C8.76005859 45.07087891 7.95761719 45.07925781 7.13085938 45.08789062 C5.08704779 45.0965143 3.04316098 45.0522815 1 45 C0 44 0 44 -0.12025452 42.20933533 C-0.11803391 41.42990067 -0.11581329 40.650466 -0.11352539 39.84741211 C-0.11341209 38.52615578 -0.11341209 38.52615578 -0.11329651 37.1782074 C-0.10555458 35.74227989 -0.10555458 35.74227989 -0.09765625 34.27734375 C-0.0962413 33.30213272 -0.09482635 32.32692169 -0.09336853 31.32215881 C-0.08775133 28.19390857 -0.07519593 25.06572877 -0.0625 21.9375 C-0.05748722 19.82226666 -0.05292393 17.70703219 -0.04882812 15.59179688 C-0.03777631 10.39450704 -0.02102146 5.19725855 0 0 Z " fill="#FB3600" transform="translate(724,213)"/>
<path d="M0 0 C5.61 0 11.22 0 17 0 C19 7 19 7 19 9 C16.03 9 13.06 9 10 9 C10 12.3 10 15.6 10 19 C12.31 19 14.62 19 17 19 C17 21.64 17 24.28 17 27 C14.69 27 12.38 27 10 27 C10 29.97 10 32.94 10 36 C12.64 36 15.28 36 18 36 C18.125 42.75 18.125 42.75 17 45 C11.39 45 5.78 45 0 45 C0 30.15 0 15.3 0 0 Z " fill="#F43300" transform="translate(594,213)"/>
<path d="M0 0 C5.94 0 11.88 0 18 0 C19 1 19 1 19.09765625 2.84765625 C19.06510417 4.8984375 19.03255208 6.94921875 19 9 C16.03 9 13.06 9 10 9 C10 12.3 10 15.6 10 19 C12.31 19 14.62 19 17 19 C17 21.64 17 24.28 17 27 C14.36 27 11.72 27 9 27 C9 29.97 9 32.94 9 36 C11.97 36 14.94 36 18 36 C18.09765625 42.15234375 18.09765625 42.15234375 18 44 C17.67 44.33 17.34 44.66 17 45 C11.39 45 5.78 45 0 45 C0 30.15 0 15.3 0 0 Z " fill="#EC3300" transform="translate(1040,213)"/>
<path d="M0 0 C2.7885289 -0.22107787 5.34653181 -0.28107535 8.125 -0.1875 C8.87910156 -0.17396484 9.63320313 -0.16042969 10.41015625 -0.14648438 C12.27374127 -0.11109985 14.13695978 -0.05729167 16 0 C17.4783226 2.95664519 17.06032783 5.74229737 17 9 C13.7 9 10.4 9 7 9 C7 12.3 7 15.6 7 19 C8.44375 18.95875 9.8875 18.9175 11.375 18.875 C13.8359375 18.8046875 13.8359375 18.8046875 16 19 C19.2002664 22.2002664 18.40836381 25.95825785 18.4375 30.3125 C18.47037109 31.16779297 18.50324219 32.02308594 18.53710938 32.90429688 C18.57417613 37.25458652 18.40167911 39.41017379 15.8984375 43.0859375 C12.35363804 45.42684281 10.39479103 45.52498945 6.1875 45.3125 C5.02605469 45.26738281 3.86460937 45.22226562 2.66796875 45.17578125 C1.34732422 45.08876953 1.34732422 45.08876953 0 45 C-0.33 42.03 -0.66 39.06 -1 36 C2.3 36 5.6 36 9 36 C9 32.7 9 29.4 9 26 C5.7 26 2.4 26 -1 26 C-2.8779923 22.24401541 -2.18475762 17.69526018 -2.1875 13.5625 C-2.19974609 12.59505859 -2.21199219 11.62761719 -2.22460938 10.63085938 C-2.22654297 9.70208984 -2.22847656 8.77332031 -2.23046875 7.81640625 C-2.23457764 6.96506104 -2.23868652 6.11371582 -2.24291992 5.23657227 C-2 3 -2 3 0 0 Z " fill="#F33400" transform="translate(826,213)"/>
<path d="M0 0 C5.28 0 10.56 0 16 0 C16 12.21 16 24.42 16 37 C10.72 37 5.44 37 0 37 C0 24.79 0 12.58 0 0 Z " fill="#020202" transform="translate(540,64)"/>
<path d="M0 0 C5.28 0 10.56 0 16 0 C17 1 17 1 17.11352539 4.05102539 C17.11336634 5.39991271 17.10767612 6.74880614 17.09765625 8.09765625 C17.0962413 8.80651474 17.09482635 9.51537323 17.09336853 10.24571228 C17.08775443 12.51801712 17.07519963 14.79022475 17.0625 17.0625 C17.05748681 18.59960796 17.05292359 20.13671745 17.04882812 21.67382812 C17.0386297 25.44928667 17.01905732 29.22453404 17 33 C11.39 33 5.78 33 0 33 C0 22.11 0 11.22 0 0 Z " fill="#020202" transform="translate(540,125)"/>
<path d="M0 0 C2.97 0 5.94 0 9 0 C9 11.88 9 23.76 9 36 C11.97 36 14.94 36 18 36 C17.34 38.97 16.68 41.94 16 45 C13.35409986 45.02684679 10.70846904 45.04676357 8.0625 45.0625 C7.30775391 45.07087891 6.55300781 45.07925781 5.77539062 45.08789062 C3.85005687 45.09652441 1.92464419 45.05224333 0 45 C-1.53084425 43.46915575 -1.12715779 42.08796856 -1.12939453 39.95507812 C-1.13254669 39.09748901 -1.13569885 38.2398999 -1.13894653 37.35632324 C-1.1369223 36.42404907 -1.13489807 35.4917749 -1.1328125 34.53125 C-1.13376923 33.58060669 -1.13472595 32.62996338 -1.13571167 31.6505127 C-1.13639357 29.63631118 -1.13453862 27.62210748 -1.13037109 25.60791016 C-1.12502298 22.51329645 -1.13031577 19.4188279 -1.13671875 16.32421875 C-1.13605797 14.37239551 -1.13477681 12.42057236 -1.1328125 10.46875 C-1.13483673 9.53647583 -1.13686096 8.60420166 -1.13894653 7.64367676 C-1.13579437 6.78608765 -1.13264221 5.92849854 -1.12939453 5.04492188 C-1.12859894 4.28626831 -1.12780334 3.52761475 -1.12698364 2.74597168 C-1 1 -1 1 0 0 Z " fill="#EE3200" transform="translate(555,213)"/>
<path d="M0 0 C7.26 0 14.52 0 22 0 C22.020625 3.444375 22.04125 6.88875 22.0625 10.4375 C22.071604 11.52474365 22.08070801 12.6119873 22.09008789 13.73217773 C22.09258545 14.58239502 22.09508301 15.4326123 22.09765625 16.30859375 C22.10551147 17.62041626 22.10551147 17.62041626 22.11352539 18.95874023 C22 21 22 21 21 22 C19.43827255 22.08685603 17.87270656 22.10702219 16.30859375 22.09765625 C15.45837646 22.09515869 14.60815918 22.09266113 13.73217773 22.09008789 C12.64493408 22.08098389 11.55769043 22.07187988 10.4375 22.0625 C6.993125 22.041875 3.54875 22.02125 0 22 C0 14.74 0 7.48 0 0 Z " fill="#140700" transform="translate(104,63)"/>
<path d="M0 0 C6.93 0 13.86 0 21 0 C21 6.93 21 13.86 21 21 C14.07 21 7.14 21 0 21 C0 14.07 0 7.14 0 0 Z " fill="#060100" transform="translate(61,63)"/>
<path d="M0 0 C2.97 0 5.94 0 9 0 C9 14.85 9 29.7 9 45 C6.03 45 3.06 45 0 45 C0 30.15 0 15.3 0 0 Z " fill="#F43400" transform="translate(792,213)"/>
<path d="M0 0 C0.33 0 0.66 0 1 0 C2.98 16.17 4.96 32.34 7 49 C2.71 49 -1.58 49 -6 49 C-5.31726992 38.30389541 -3.95533197 27.79119876 -2.4375 17.1875 C-2.20079897 15.51242244 -1.96446841 13.83729249 -1.72851562 12.16210938 C-1.15660301 8.10745763 -0.57971638 4.05354304 0 0 Z " fill="#0B0B0B" transform="translate(939,94)"/>
<path d="M0 0 C2.475 0.495 2.475 0.495 5 1 C5 9.91 5 18.82 5 28 C3.35 28 1.7 28 0 28 C0 18.76 0 9.52 0 0 Z " fill="#1E0500" transform="translate(461,221)"/>
<path d="M0 0 C5.94 0 11.88 0 18 0 C18 0.33 18 0.66 18 1 C12.72 1 7.44 1 2 1 C2 14.86 2 28.72 2 43 C7.28 43 12.56 43 18 43 C18 43.66 18 44.32 18 45 C15.18743719 45.02684312 12.37512759 45.04676188 9.5625 45.0625 C8.76005859 45.07087891 7.95761719 45.07925781 7.13085938 45.08789062 C5.08704779 45.0965143 3.04316098 45.0522815 1 45 C0 44 0 44 -0.12025452 42.20933533 C-0.11803391 41.42990067 -0.11581329 40.650466 -0.11352539 39.84741211 C-0.11341209 38.52615578 -0.11341209 38.52615578 -0.11329651 37.1782074 C-0.10555458 35.74227989 -0.10555458 35.74227989 -0.09765625 34.27734375 C-0.0962413 33.30213272 -0.09482635 32.32692169 -0.09336853 31.32215881 C-0.08775133 28.19390857 -0.07519593 25.06572877 -0.0625 21.9375 C-0.05748722 19.82226666 -0.05292393 17.70703219 -0.04882812 15.59179688 C-0.03777631 10.39450393 -0.02050016 5.19726392 0 0 Z " fill="#C42100" transform="translate(724,213)"/>
<path d="M0 0 C0.99 0.33 1.98 0.66 3 1 C2.34 1.66 1.68 2.32 1 3 C0.75418157 5.86436824 0.62630619 8.6390314 0.5859375 11.5078125 C0.56657135 12.34843231 0.5472052 13.18905212 0.5272522 14.05514526 C0.46738342 16.74499303 0.42104229 19.43488343 0.375 22.125 C0.3368269 23.94663344 0.29777556 25.7682487 0.2578125 27.58984375 C0.16001942 32.05980224 0.08051024 36.52956277 0 41 C6.27 41.33 12.54 41.66 19 42 C15.56060073 44.29293284 14.17437319 44.27019638 10.125 44.25 C8.58199219 44.25773437 8.58199219 44.25773437 7.0078125 44.265625 C3.93014685 43.99383115 1.74610799 43.3976607 -1 42 C-2.59919459 38.80161082 -2.16301759 35.32946642 -2.16796875 31.81640625 C-2.17129715 31.0050975 -2.17462555 30.19378876 -2.17805481 29.3578949 C-2.1831213 27.64053922 -2.18546322 25.92317369 -2.18530273 24.20581055 C-2.18748837 21.57649536 -2.20564436 18.94760024 -2.22460938 16.31835938 C-2.2275435 14.6510431 -2.22952817 12.98372484 -2.23046875 11.31640625 C-2.24124702 10.13504845 -2.24124702 10.13504845 -2.25224304 8.92982483 C-2.23613717 5.0869531 -2.18266282 3.27399423 0 0 Z " fill="#B62000" transform="translate(453,214)"/>
<path d="M0 0 C1.32 0 2.64 0 4 0 C4 9.57 4 19.14 4 29 C2.68 29 1.36 29 0 29 C0 19.43 0 9.86 0 0 Z " fill="#110200" transform="translate(947,221)"/>
<path d="M0 0 C1.32 0 2.64 0 4 0 C4 9.57 4 19.14 4 29 C2.68 29 1.36 29 0 29 C0 19.43 0 9.86 0 0 Z " fill="#120200" transform="translate(644,221)"/>
<path d="M0 0 C1.65 0 3.3 0 5 0 C5 4.95 5 9.9 5 15 C3.35 15 1.7 15 0 15 C0 10.05 0 5.1 0 0 Z " fill="#2F0600" transform="translate(1090,221)"/>
<path d="M0 0 C1.32 0 2.64 0 4 0 C4 5.61 4 11.22 4 17 C2.68 17 1.36 17 0 17 C0 11.39 0 5.78 0 0 Z " fill="#0A0100" transform="translate(902,221)"/>
<path d="M0 0 C2.62895146 3.94342719 3.05927998 7.36359419 4 12 C1.03 12 -1.94 12 -5 12 C-5.33 11.34 -5.66 10.68 -6 10 C-3.36 10 -0.72 10 2 10 C1.505 8.63875 1.505 8.63875 1 7.25 C0 4 0 4 0 0 Z " fill="#B51E00" transform="translate(1101,246)"/>
<path d="M0 0 C0.33 0 0.66 0 1 0 C1.33 3.3 1.66 6.6 2 10 C1.34 10 0.68 10 0 10 C-0.33 13.63 -0.66 17.26 -1 21 C-1.33 21 -1.66 21 -2 21 C-2.28100502 13.83437211 -1.20443195 7.05453001 0 0 Z " fill="#313131" transform="translate(939,94)"/>
<path d="M0 0 C0.99 0.33 1.98 0.66 3 1 C2.34 1.66 1.68 2.32 1 3 C0.53709779 5.66242821 0.53709779 5.66242821 0.375 8.625 C0.30023438 9.62789062 0.22546875 10.63078125 0.1484375 11.6640625 C0.09945313 12.43492187 0.05046875 13.20578125 0 14 C-0.33 14 -0.66 14 -1 14 C-1.02685938 11.85423363 -1.04633088 9.70837355 -1.0625 7.5625 C-1.07410156 6.36753906 -1.08570313 5.17257813 -1.09765625 3.94140625 C-1 1 -1 1 0 0 Z " fill="#EA2E00" transform="translate(453,214)"/>
<path d="M0 0 C0.66 0 1.32 0 2 0 C3.35439668 2.70879335 3.06501451 5.00933268 3 8 C2.01 7.67 1.02 7.34 0 7 C0 4.69 0 2.38 0 0 Z " fill="#6B1200" transform="translate(513,238)"/>
</svg>
